<mxfile host="app.diagrams.net" agent="Mozilla/5.0 (Windows NT 10.0; Win64; x64) AppleWebKit/537.36 (KHTML, like Gecko) Chrome/131.0.0.0 Safari/537.36" version="25.0.1">
  <diagram name="Trang-1" id="NhKsL74oVKuJJSOy_bK9">
    <mxGraphModel dx="1877" dy="522" grid="1" gridSize="10" guides="1" tooltips="1" connect="1" arrows="1" fold="1" page="1" pageScale="1" pageWidth="827" pageHeight="1169" math="0" shadow="0">
      <root>
        <mxCell id="0" />
        <mxCell id="1" parent="0" />
        <mxCell id="H7837LV8c2Pt0KX3AEr7-1" value="" style="edgeStyle=orthogonalEdgeStyle;rounded=0;orthogonalLoop=1;jettySize=auto;html=1;" parent="1" source="H7837LV8c2Pt0KX3AEr7-2" edge="1">
          <mxGeometry relative="1" as="geometry">
            <mxPoint x="264" y="170" as="targetPoint" />
          </mxGeometry>
        </mxCell>
        <mxCell id="H7837LV8c2Pt0KX3AEr7-2" value="Start" style="ellipse;whiteSpace=wrap;html=1;" parent="1" vertex="1">
          <mxGeometry x="204" width="120" height="80" as="geometry" />
        </mxCell>
        <mxCell id="H7837LV8c2Pt0KX3AEr7-3" value="" style="edgeStyle=orthogonalEdgeStyle;rounded=0;orthogonalLoop=1;jettySize=auto;html=1;" parent="1" target="H7837LV8c2Pt0KX3AEr7-8" edge="1">
          <mxGeometry relative="1" as="geometry">
            <mxPoint x="264" y="230" as="sourcePoint" />
          </mxGeometry>
        </mxCell>
        <mxCell id="H7837LV8c2Pt0KX3AEr7-4" value="" style="edgeStyle=orthogonalEdgeStyle;rounded=0;orthogonalLoop=1;jettySize=auto;html=1;" parent="1" source="H7837LV8c2Pt0KX3AEr7-8" target="H7837LV8c2Pt0KX3AEr7-13" edge="1">
          <mxGeometry relative="1" as="geometry" />
        </mxCell>
        <mxCell id="H7837LV8c2Pt0KX3AEr7-5" value="Đúng" style="edgeLabel;html=1;align=center;verticalAlign=middle;resizable=0;points=[];" parent="H7837LV8c2Pt0KX3AEr7-4" vertex="1" connectable="0">
          <mxGeometry x="-0.03" relative="1" as="geometry">
            <mxPoint as="offset" />
          </mxGeometry>
        </mxCell>
        <mxCell id="H7837LV8c2Pt0KX3AEr7-6" value="" style="edgeStyle=orthogonalEdgeStyle;rounded=0;orthogonalLoop=1;jettySize=auto;html=1;" parent="1" source="H7837LV8c2Pt0KX3AEr7-8" target="H7837LV8c2Pt0KX3AEr7-17" edge="1">
          <mxGeometry relative="1" as="geometry" />
        </mxCell>
        <mxCell id="H7837LV8c2Pt0KX3AEr7-7" value="Sai" style="edgeLabel;html=1;align=center;verticalAlign=middle;resizable=0;points=[];" parent="H7837LV8c2Pt0KX3AEr7-6" vertex="1" connectable="0">
          <mxGeometry x="-0.255" y="-1" relative="1" as="geometry">
            <mxPoint as="offset" />
          </mxGeometry>
        </mxCell>
        <mxCell id="H7837LV8c2Pt0KX3AEr7-8" value="a&amp;gt;b" style="rhombus;whiteSpace=wrap;html=1;" parent="1" vertex="1">
          <mxGeometry x="224" y="300" width="80" height="80" as="geometry" />
        </mxCell>
        <mxCell id="H7837LV8c2Pt0KX3AEr7-76" value="" style="edgeStyle=orthogonalEdgeStyle;rounded=0;orthogonalLoop=1;jettySize=auto;html=1;" parent="1" source="H7837LV8c2Pt0KX3AEr7-13" target="H7837LV8c2Pt0KX3AEr7-75" edge="1">
          <mxGeometry relative="1" as="geometry" />
        </mxCell>
        <mxCell id="H7837LV8c2Pt0KX3AEr7-77" value="Đúng" style="edgeLabel;html=1;align=center;verticalAlign=middle;resizable=0;points=[];" parent="H7837LV8c2Pt0KX3AEr7-76" vertex="1" connectable="0">
          <mxGeometry x="0.0267" relative="1" as="geometry">
            <mxPoint as="offset" />
          </mxGeometry>
        </mxCell>
        <mxCell id="H7837LV8c2Pt0KX3AEr7-90" value="" style="edgeStyle=orthogonalEdgeStyle;rounded=0;orthogonalLoop=1;jettySize=auto;html=1;" parent="1" source="H7837LV8c2Pt0KX3AEr7-13" target="H7837LV8c2Pt0KX3AEr7-89" edge="1">
          <mxGeometry relative="1" as="geometry" />
        </mxCell>
        <mxCell id="H7837LV8c2Pt0KX3AEr7-91" value="Sai" style="edgeLabel;html=1;align=center;verticalAlign=middle;resizable=0;points=[];" parent="H7837LV8c2Pt0KX3AEr7-90" vertex="1" connectable="0">
          <mxGeometry x="-0.06" y="-1" relative="1" as="geometry">
            <mxPoint as="offset" />
          </mxGeometry>
        </mxCell>
        <mxCell id="H7837LV8c2Pt0KX3AEr7-13" value="b&amp;gt;c" style="rhombus;whiteSpace=wrap;html=1;" parent="1" vertex="1">
          <mxGeometry x="60" y="300" width="80" height="80" as="geometry" />
        </mxCell>
        <mxCell id="H7837LV8c2Pt0KX3AEr7-44" value="" style="edgeStyle=orthogonalEdgeStyle;rounded=0;orthogonalLoop=1;jettySize=auto;html=1;" parent="1" source="H7837LV8c2Pt0KX3AEr7-17" target="H7837LV8c2Pt0KX3AEr7-23" edge="1">
          <mxGeometry relative="1" as="geometry" />
        </mxCell>
        <mxCell id="H7837LV8c2Pt0KX3AEr7-48" value="Sai" style="edgeLabel;html=1;align=center;verticalAlign=middle;resizable=0;points=[];" parent="H7837LV8c2Pt0KX3AEr7-44" vertex="1" connectable="0">
          <mxGeometry x="-0.2267" y="1" relative="1" as="geometry">
            <mxPoint as="offset" />
          </mxGeometry>
        </mxCell>
        <mxCell id="H7837LV8c2Pt0KX3AEr7-46" value="" style="edgeStyle=orthogonalEdgeStyle;rounded=0;orthogonalLoop=1;jettySize=auto;html=1;" parent="1" source="H7837LV8c2Pt0KX3AEr7-17" target="H7837LV8c2Pt0KX3AEr7-45" edge="1">
          <mxGeometry relative="1" as="geometry" />
        </mxCell>
        <mxCell id="H7837LV8c2Pt0KX3AEr7-47" value="Đúng" style="edgeLabel;html=1;align=center;verticalAlign=middle;resizable=0;points=[];" parent="H7837LV8c2Pt0KX3AEr7-46" vertex="1" connectable="0">
          <mxGeometry x="-0.295" relative="1" as="geometry">
            <mxPoint as="offset" />
          </mxGeometry>
        </mxCell>
        <mxCell id="H7837LV8c2Pt0KX3AEr7-17" value="b&amp;gt;c" style="rhombus;whiteSpace=wrap;html=1;" parent="1" vertex="1">
          <mxGeometry x="374" y="300" width="80" height="80" as="geometry" />
        </mxCell>
        <mxCell id="H7837LV8c2Pt0KX3AEr7-18" value="int a,b,c" style="shape=parallelogram;perimeter=parallelogramPerimeter;whiteSpace=wrap;html=1;fixedSize=1;" parent="1" vertex="1">
          <mxGeometry x="204" y="170" width="120" height="60" as="geometry" />
        </mxCell>
        <mxCell id="H7837LV8c2Pt0KX3AEr7-19" value="End" style="ellipse;whiteSpace=wrap;html=1;" parent="1" vertex="1">
          <mxGeometry x="204" y="690" width="120" height="80" as="geometry" />
        </mxCell>
        <mxCell id="H7837LV8c2Pt0KX3AEr7-57" style="edgeStyle=orthogonalEdgeStyle;rounded=0;orthogonalLoop=1;jettySize=auto;html=1;" parent="1" source="H7837LV8c2Pt0KX3AEr7-23" edge="1">
          <mxGeometry relative="1" as="geometry">
            <mxPoint x="414" y="730" as="targetPoint" />
          </mxGeometry>
        </mxCell>
        <mxCell id="H7837LV8c2Pt0KX3AEr7-23" value="Số nhỏ nhất là a" style="whiteSpace=wrap;html=1;" parent="1" vertex="1">
          <mxGeometry x="354" y="470" width="120" height="60" as="geometry" />
        </mxCell>
        <mxCell id="H7837LV8c2Pt0KX3AEr7-50" value="" style="edgeStyle=orthogonalEdgeStyle;rounded=0;orthogonalLoop=1;jettySize=auto;html=1;" parent="1" source="H7837LV8c2Pt0KX3AEr7-45" target="H7837LV8c2Pt0KX3AEr7-49" edge="1">
          <mxGeometry relative="1" as="geometry" />
        </mxCell>
        <mxCell id="H7837LV8c2Pt0KX3AEr7-54" value="Đúng" style="edgeLabel;html=1;align=center;verticalAlign=middle;resizable=0;points=[];" parent="H7837LV8c2Pt0KX3AEr7-50" vertex="1" connectable="0">
          <mxGeometry x="-0.1267" y="-1" relative="1" as="geometry">
            <mxPoint as="offset" />
          </mxGeometry>
        </mxCell>
        <mxCell id="H7837LV8c2Pt0KX3AEr7-52" value="" style="edgeStyle=orthogonalEdgeStyle;rounded=0;orthogonalLoop=1;jettySize=auto;html=1;" parent="1" source="H7837LV8c2Pt0KX3AEr7-45" target="H7837LV8c2Pt0KX3AEr7-51" edge="1">
          <mxGeometry relative="1" as="geometry" />
        </mxCell>
        <mxCell id="H7837LV8c2Pt0KX3AEr7-53" value="Sai" style="edgeLabel;html=1;align=center;verticalAlign=middle;resizable=0;points=[];" parent="H7837LV8c2Pt0KX3AEr7-52" vertex="1" connectable="0">
          <mxGeometry x="-0.16" y="1" relative="1" as="geometry">
            <mxPoint as="offset" />
          </mxGeometry>
        </mxCell>
        <mxCell id="H7837LV8c2Pt0KX3AEr7-45" value="a&amp;gt;c" style="rhombus;whiteSpace=wrap;html=1;" parent="1" vertex="1">
          <mxGeometry x="534" y="300" width="80" height="80" as="geometry" />
        </mxCell>
        <mxCell id="H7837LV8c2Pt0KX3AEr7-55" style="edgeStyle=orthogonalEdgeStyle;rounded=0;orthogonalLoop=1;jettySize=auto;html=1;entryX=1;entryY=0.5;entryDx=0;entryDy=0;" parent="1" source="H7837LV8c2Pt0KX3AEr7-49" target="H7837LV8c2Pt0KX3AEr7-19" edge="1">
          <mxGeometry relative="1" as="geometry">
            <Array as="points">
              <mxPoint x="734" y="730" />
            </Array>
          </mxGeometry>
        </mxCell>
        <mxCell id="H7837LV8c2Pt0KX3AEr7-49" value="Số nhỏ nhất là c" style="whiteSpace=wrap;html=1;" parent="1" vertex="1">
          <mxGeometry x="674" y="310" width="120" height="60" as="geometry" />
        </mxCell>
        <mxCell id="H7837LV8c2Pt0KX3AEr7-56" style="edgeStyle=orthogonalEdgeStyle;rounded=0;orthogonalLoop=1;jettySize=auto;html=1;" parent="1" source="H7837LV8c2Pt0KX3AEr7-51" edge="1">
          <mxGeometry relative="1" as="geometry">
            <mxPoint x="574" y="730" as="targetPoint" />
          </mxGeometry>
        </mxCell>
        <mxCell id="H7837LV8c2Pt0KX3AEr7-51" value="Số nhỏ nhất là a" style="whiteSpace=wrap;html=1;" parent="1" vertex="1">
          <mxGeometry x="514" y="470" width="120" height="60" as="geometry" />
        </mxCell>
        <mxCell id="H7837LV8c2Pt0KX3AEr7-75" value="Số nhỏ nhất là c" style="whiteSpace=wrap;html=1;" parent="1" vertex="1">
          <mxGeometry x="40" y="470" width="120" height="60" as="geometry" />
        </mxCell>
        <mxCell id="H7837LV8c2Pt0KX3AEr7-89" value="Số nhỏ nhất là b" style="whiteSpace=wrap;html=1;" parent="1" vertex="1">
          <mxGeometry x="-120" y="310" width="120" height="60" as="geometry" />
        </mxCell>
      </root>
    </mxGraphModel>
  </diagram>
</mxfile>
